<svg xmlns="http://www.w3.org/2000/svg" xmlns:svg="http://www.w3.org/2000/svg" id="svg4520" width="1006.4" height="399.36" version="1.1" viewBox="0 0 943.5 374.4" xml:space="preserve"><metadata id="metadata4526"/><defs id="defs4524"><marker style="overflow:visible" id="marker13320" orient="auto" refX="0" refY="0"><path style="fill:red;fill-opacity:1;fill-rule:evenodd;stroke:red;stroke-width:1pt;stroke-opacity:1" id="path13322" d="m 5.77,0 -8.65,5 0,-10 8.65,5 z" transform="scale(-0.8,-0.8)"/></marker><marker id="marker12233" orient="auto" refX="0" refY="0" style="overflow:visible"><path id="path12235" d="m 5.77,0 -8.65,5 0,-10 8.65,5 z" transform="scale(-0.8,-0.8)" style="fill:red;fill-opacity:1;fill-rule:evenodd;stroke:red;stroke-width:1pt;stroke-opacity:1"/></marker><marker id="marker11395" orient="auto" refX="0" refY="0" style="overflow:visible"><path id="path11397" d="m 5.77,0 -8.65,5 0,-10 8.65,5 z" transform="scale(-0.8,-0.8)" style="fill:red;fill-opacity:1;fill-rule:evenodd;stroke:red;stroke-width:1pt;stroke-opacity:1"/></marker><marker id="marker10251" orient="auto" refX="0" refY="0" style="overflow:visible"><path id="path10253" d="m 5.77,0 -8.65,5 0,-10 8.65,5 z" transform="scale(-0.8,-0.8)" style="fill:red;fill-opacity:1;fill-rule:evenodd;stroke:red;stroke-width:1pt;stroke-opacity:1"/></marker><marker style="overflow:visible" id="marker6949" orient="auto" refX="0" refY="0"><path style="fill:red;fill-opacity:1;fill-rule:evenodd;stroke:red;stroke-width:1pt;stroke-opacity:1" id="path6951" d="m 5.77,0 -8.65,5 0,-10 8.65,5 z" transform="scale(0.8,0.8)"/></marker><marker id="TriangleOutL" orient="auto" refX="0" refY="0" style="overflow:visible"><path id="path5973" d="m 5.77,0 -8.65,5 0,-10 8.65,5 z" transform="scale(0.8,0.8)" style="fill:red;fill-opacity:1;fill-rule:evenodd;stroke:red;stroke-width:1pt;stroke-opacity:1"/></marker><marker id="Arrow2Lend" orient="auto" refX="0" refY="0" style="overflow:visible"><path id="path5852" d="M 8.7185878,4.0337352 -2.2072895,0.01601326 8.7185884,-4.0017078 c -1.7454984,2.3720609 -1.7354408,5.6174519 -6e-7,8.035443 z" transform="matrix(-1.1,0,0,-1.1,-1.1,0)" style="fill:red;fill-opacity:1;fill-rule:evenodd;stroke:red;stroke-width:.625;stroke-linejoin:round;stroke-opacity:1"/></marker><marker id="marker6521" orient="auto" refX="0" refY="0" style="overflow:visible"><path id="path6523" d="M 8.7185878,4.0337352 -2.2072895,0.01601326 8.7185884,-4.0017078 c -1.7454984,2.3720609 -1.7354408,5.6174519 -6e-7,8.035443 z" transform="matrix(1.1,0,0,1.1,1.1,0)" style="fill:red;fill-opacity:1;fill-rule:evenodd;stroke:red;stroke-width:.625;stroke-linejoin:round;stroke-opacity:1"/></marker><marker id="Legs" orient="auto" refX="0" refY="0" style="overflow:visible"><g id="g6030" transform="scale(-0.7,-0.7)" style="fill:red;fill-opacity:1;stroke:red;stroke-opacity:1"><g id="g6032" transform="matrix(0,-1,-1,0,20.70862,21.31391)" style="fill:red;fill-opacity:1;stroke:red;stroke-opacity:1"><path id="path6034" d="m 21.22125,20.67536 c -6.910151,4.721157 -2.454525,6.606844 -5.841071,13.443235" style="fill:red;fill-opacity:1;fill-rule:evenodd;stroke:red;stroke-width:1pt;stroke-opacity:1"/><path id="path6036" d="m 21.39811,20.54812 c -1.360509,8.347524 3.536072,8.76994 4.505041,13.824958" style="fill:red;fill-opacity:1;fill-rule:evenodd;stroke:red;stroke-width:1pt;stroke-opacity:1"/></g><path id="path6038" d="m -14.09007,-6.7318716 -0.922168,4.043383 3.962751,-1.22307 -3.040583,-2.820313 z" style="fill:red;fill-opacity:1;fill-rule:evenodd;stroke:red;stroke-width:1pt;stroke-opacity:1"/><path id="path6040" d="m -15.215679,4.5567534 1.874127,3.699613 2.266874,-3.472855 -4.141001,-0.226758 z" style="fill:red;fill-opacity:1;fill-rule:evenodd;stroke:red;stroke-width:1pt;stroke-opacity:1"/></g></marker><marker id="DiamondMstart" orient="auto" refX="0" refY="0" style="overflow:visible"><path id="path5922" d="M 0,-7.0710768 -7.0710894,0 0,7.0710589 7.0710462,0 0,-7.0710768 Z" transform="matrix(0.4,0,0,0.4,2.6,0)" style="fill:red;fill-opacity:1;fill-rule:evenodd;stroke:red;stroke-width:1pt;stroke-opacity:1"/></marker><marker id="marker6281" orient="auto" refX="0" refY="0" style="overflow:visible"><path id="path6283" d="M 8.7185878,4.0337352 -2.2072895,0.01601326 8.7185884,-4.0017078 c -1.7454984,2.3720609 -1.7354408,5.6174519 -6e-7,8.035443 z" transform="matrix(1.1,0,0,1.1,1.1,0)" style="fill:red;fill-opacity:1;fill-rule:evenodd;stroke:red;stroke-width:.625;stroke-linejoin:round;stroke-opacity:1"/></marker><marker id="marker6247" orient="auto" refX="0" refY="0" style="overflow:visible"><path id="path6249" d="M 8.7185878,4.0337352 -2.2072895,0.01601326 8.7185884,-4.0017078 c -1.7454984,2.3720609 -1.7354408,5.6174519 -6e-7,8.035443 z" transform="matrix(1.1,0,0,1.1,1.1,0)" style="fill:red;fill-opacity:1;fill-rule:evenodd;stroke:red;stroke-width:.625;stroke-linejoin:round;stroke-opacity:1"/></marker><marker id="Arrow2Lstart" orient="auto" refX="0" refY="0" style="overflow:visible"><path id="path5849" d="M 8.7185878,4.0337352 -2.2072895,0.01601326 8.7185884,-4.0017078 c -1.7454984,2.3720609 -1.7354408,5.6174519 -6e-7,8.035443 z" transform="matrix(1.1,0,0,1.1,1.1,0)" style="fill:red;fill-opacity:1;fill-rule:evenodd;stroke:red;stroke-width:.625;stroke-linejoin:round;stroke-opacity:1"/></marker><marker id="Arrow1Lstart" orient="auto" refX="0" refY="0" style="overflow:visible"><path id="path5831" d="M 0,0 5,-5 -12.5,0 5,5 0,0 Z" transform="matrix(0.8,0,0,0.8,10,0)" style="fill:red;fill-opacity:1;fill-rule:evenodd;stroke:red;stroke-width:1pt;stroke-opacity:1"/></marker></defs><g id="g4528" transform="matrix(0.9375,0,0,0.9375,-21.900001,-197.85)"><g id="g4534" transform="translate(1029.76,606.23999)"><path style="fill:#385d8a;fill-opacity:1;fill-rule:nonzero;stroke:none" id="path4536" d="m 0,0 c 0,0.32 -0.32,0.8 -0.8,0.8 l -517.43999,0 c -0.47998,0 -0.79999,-0.48 -0.79999,-0.8 l 0,-356.32001 c 0,-0.47998 0.32001,-0.79999 0.79999,-0.79999 l 517.43999,0 c 0.48,0 0.8,0.32001 0.8,0.79999 L 0,0 Z m -1.6,-356.32001 0.8,0.80002 -517.43999,0 0.79999,-0.80002 0,356.32001 -0.79999,-0.8 517.43999,0 -0.8,0.8 0,-356.32001 z"/></g><g id="g4538" transform="translate(824.15997,331.84)"><path style="fill:gray;fill-opacity:1;fill-rule:evenodd;stroke:none" id="path4540" d="m 0,0 c 0,-4.8 3.84,-8.64 8.64,-8.64 l 177.92,0 c 4.96,0 8.8,3.84 8.8,8.64 l 0,257.60001 c 0,4.79998 -3.84,8.79998 -8.8,8.79998 l -177.92,0 c -4.8,0 -8.64,-4 -8.64,-8.79998 L 0,0 Z"/></g><g id="g4542" transform="scale(0.048828,0.048828)"><text style="font-variant:normal;font-weight:400;font-size:327.67999268px;font-family:sans-serif;-inkscape-font-specification:sans-serif;writing-mode:lr-tb;fill:#000;fill-opacity:1;fill-rule:nonzero;stroke:#000;stroke-width:3.27699995;stroke-linecap:butt;stroke-linejoin:miter;stroke-miterlimit:10;stroke-dasharray:none;stroke-opacity:1" id="text4544" transform="translate(18225.6,7025.4399)"><tspan id="tspan4546" x="0 275.251 445.645 599.654 665.19 825.754 996.147 1068.237 1235.353 1389.363" y="0">WoT Thing</tspan></text></g><g id="g4548" transform="scale(0.048828,0.048828)"><text style="font-variant:normal;font-weight:400;font-size:327.67999268px;font-family:sans-serif;-inkscape-font-specification:sans-serif;writing-mode:lr-tb;fill:#000;fill-opacity:1;fill-rule:nonzero;stroke:#000;stroke-width:3.27699995;stroke-linecap:butt;stroke-linejoin:miter;stroke-miterlimit:10;stroke-dasharray:none;stroke-opacity:1" id="text4550" transform="translate(17308,7418.7202)"><tspan id="tspan4552" x="0 101.581 304.742 458.752 563.61 714.342 861.798 1022.362 1087.898 1258.291 1431.961 1602.355 1710.49 1776.025 1913.651 2087.322 2251.162 2356.019 2460.877 2627.994 2700.083 2772.173 2932.736 3040.87" y="0">(Garage door controller)</tspan></text></g><g id="g4554" transform="translate(824.15997,331.84)"><path style="fill:gray;fill-opacity:1;fill-rule:evenodd;stroke:none" id="path4556" d="m 0,0 c 0,-4.8 3.84,-8.64 8.64,-8.64 l 177.92,0 c 4.96,0 8.8,3.84 8.8,8.64 l 0,257.60001 c 0,4.79998 -3.84,8.79998 -8.8,8.79998 l -177.92,0 c -4.8,0 -8.64,-4 -8.64,-8.79998 L 0,0 Z"/></g><g id="g4570" transform="matrix(0.91892594,0,0,1,832.96002,499.35999)"><path style="fill:#00b050;fill-opacity:1;fill-rule:evenodd;stroke:none" id="path4572" d="m 0,0 c 0,-3.52 2.88,-6.4 6.4,-6.4 l 76.960001,0 c 3.519996,0 6.400001,2.88 6.400001,6.4 l 0,82.400002 c 0,3.519996 -2.880005,6.400001 -6.400001,6.400001 l -76.960001,0 c -3.52,0 -6.4,-2.880005 -6.4,-6.400001 L 0,0 Z"/></g><g id="g4586" transform="translate(23.360001,214.24)"><path style="fill:gray;fill-opacity:1;fill-rule:evenodd;stroke:none" id="path4588" d="m 0,0 c 0,-1.76 1.44,-3.2 3.2,-3.2 l 161.44,0 c 1.75999,0 3.2,1.44 3.2,3.2 l 0,65.440002 c 0,1.759995 -1.44001,3.199997 -3.2,3.199997 l -161.44,0 c -1.76,0 -3.2,-1.440002 -3.2,-3.199997 L 0,0 Z"/></g><g id="g4590" transform="scale(0.048828,0.048828)"><text style="font-variant:normal;font-weight:400;font-size:327.67999268px;font-family:sans-serif;-inkscape-font-specification:sans-serif;writing-mode:lr-tb;fill:#000;fill-opacity:1;fill-rule:nonzero;stroke:none" id="text4592" transform="translate(1418.88,4695.6802)"><tspan id="tspan4594" x="0 285.082 462.029 625.869 694.682 868.352 950.272 1032.192 1196.032 1369.702 1484.39" y="0">WoT Client</tspan></text></g><g id="g4596" transform="scale(0.048828,0.048828)"><text style="font-variant:normal;font-weight:400;font-size:327.67999268px;font-family:sans-serif;-inkscape-font-specification:sans-serif;writing-mode:lr-tb;fill:#000;fill-opacity:1;fill-rule:nonzero;stroke:none" id="text4598" transform="translate(1530.24,5088.7998)"><tspan id="tspan4600" x="0 101.581 285.082 399.77 576.717 819.2 950.272 1114.112 1232.077" y="0">(Browser)</tspan></text></g><g id="g4602" transform="translate(23.360001,214.24)"><path style="fill:gray;fill-opacity:1;fill-rule:evenodd;stroke:none" id="path4604" d="m 0,0 c 0,-1.76 1.44,-3.2 3.2,-3.2 l 161.44,0 c 1.75999,0 3.2,1.44 3.2,3.2 l 0,65.440002 c 0,1.759995 -1.44001,3.199997 -3.2,3.199997 l -161.44,0 c -1.76,0 -3.2,-1.440002 -3.2,-3.199997 L 0,0 Z"/></g><g id="g4618"><path style="fill:#4a7b7c;fill-opacity:1;fill-rule:evenodd;stroke:none" id="path4620" d="m 252.8,233.44 129.92,0 0,41.60001 -10.56,10.56 -119.36,0 0,-52.16001 z"/></g><g id="g4622"><path style="fill:#3b6364;fill-opacity:1;fill-rule:evenodd;stroke:none" id="path4624" d="m 372.16,285.60001 2.07999,-8.48001 8.48001,-2.07999 -10.56,10.56 z"/></g><g id="g4638" transform="translate(227.84,255.52)"><path style="fill:#fff;fill-opacity:1;fill-rule:evenodd;stroke:none" id="path4640" d="M 0,0 C 1.12,-1.92 3.36,-2.56 5.28,-1.44 7.04,-0.48 7.68,1.92 6.72,3.68 5.6,5.6 3.2,6.24 1.44,5.12 -0.32,4.16 -0.96,1.76 0,0 Z"/></g><g id="g4642" transform="matrix(1.0798991,0,0,1,924.872,498.56)"><path style="fill:#595959;fill-opacity:1;fill-rule:evenodd;stroke:none" id="path4644" d="m 0,0 c 0,-3.04 2.56,-5.6 5.6,-5.6 l 67.999998,0 c 3.200005,0 5.599999,2.56 5.599999,5.6 l 0,83.839996 c 0,3.200005 -2.399994,5.760002 -5.599999,5.760002 l -67.999998,0 c -3.04,0 -5.6,-2.559997 -5.6,-5.760002 L 0,0 Z"/></g><g id="g4652" transform="matrix(1.1607726,0,0,0.79643347,-158.60925,118.10115)"><path style="fill:#bfbfbf;fill-opacity:1;fill-rule:nonzero;stroke:none" id="path4654" d="m 941.28003,525.76001 59.03997,0 0,54.39996 -59.03997,0 0,-54.39996 z"/></g><g id="g4672" transform="matrix(1,0,0,0.84811813,832.96002,401.07377)"><path style="fill:#005a9c;fill-opacity:1;fill-rule:evenodd;stroke:none" id="path4674" d="m 0,0 c 0,-3.04 2.4,-5.44 5.44,-5.44 l 166.56,0 c 3.03999,0 5.44,2.4 5.44,5.44 l 0,93.279999 c 0,3.040001 -2.40001,5.440002 -5.44,5.440002 l -166.56,0 C 2.4,98.720001 0,96.32 0,93.279999 L 0,0 Z"/></g><g id="g4682"><path style="fill:#bfbfbf;fill-opacity:1;fill-rule:evenodd;stroke:none" id="path4684" d="m 328,317.76001 -7.04001,0 0,18.88 -13.75998,0 0,-18.88 -6.88,0 L 314.07999,303.84 328,317.76001 Z"/></g><g id="g4686"><path style="fill:#4a7b7c;fill-opacity:1;fill-rule:evenodd;stroke:none" id="path4688" d="m 659.84003,333.60001 129.75995,0 0,41.6 -10.56,10.56 -119.19995,0 0,-52.16 z"/></g><g id="g4690"><path style="fill:#3b6364;fill-opacity:1;fill-rule:evenodd;stroke:none" id="path4692" d="M 779.03998,385.76001 781.12,377.28 l 8.47998,-2.07999 -10.56,10.56 z"/></g><g id="g4706"><path style="fill:#bfbfbf;fill-opacity:1;fill-rule:evenodd;stroke:none" id="path4708" d="m 805.28003,346.39999 0,7.04001 18.87994,0 0,13.76001 -18.87994,0 0,6.87998 -13.76001,-13.75998 13.76001,-13.92002 z"/></g><g id="g4710" transform="translate(296.95999,504.73946)"><path style="fill:#d9d9d9;fill-opacity:1;fill-rule:evenodd;stroke:none" id="path4712" d="m 0,0 c 0,-15.04 14.56,-27.360001 32.639999,-27.360001 17.920002,0 32.480004,12.320001 32.480004,27.360001 0,15.2 -14.560002,27.52 -32.480004,27.52 C 14.56,27.52 0,15.2 0,0 Z"/></g><g id="g4714" transform="translate(393.60001,499.51999)"><path style="fill:#d9d9d9;fill-opacity:1;fill-rule:evenodd;stroke:none" id="path4716" d="m 0,0 c 0,-18.24 17.6,-33.119999 39.200001,-33.119999 21.599998,0 39.200001,14.879999 39.200001,33.119999 0,18.24 -17.600003,32.959999 -39.200001,32.959999 C 17.6,32.959999 0,18.24 0,0 Z"/></g><g id="g4718" transform="translate(-2.1333329,-1.5005327)"><path style="fill:#d9d9d9;fill-opacity:1;fill-rule:nonzero;stroke:none" id="path4720" d="m 334.88,495.04001 96.63999,0 0,38.72 -96.63999,0 0,-38.72 z"/></g><g id="g4722" transform="translate(336.79999,477.60001)"><path style="fill:#d9d9d9;fill-opacity:1;fill-rule:evenodd;stroke:none" id="path4724" d="m 0,0 c 0,-19.68 18.879999,-35.84 42.400002,-35.84 23.519996,0 42.400001,16.16 42.400001,35.84 0,19.84 -18.880005,35.84 -42.400001,35.84 C 18.879999,35.84 0,19.84 0,0 Z"/></g><g id="g4738" transform="translate(32.32,420.32001)"><path style="fill:gray;fill-opacity:1;fill-rule:evenodd;stroke:none" id="path4740" d="m 0,0 c 0,-4.32 3.52,-7.84 7.84,-7.84 l 230.55999,0 C 242.72,-7.84 246.24,-4.32 246.24,0 l 0,160 c 0,4.32001 -3.52,7.84 -7.84001,7.84 L 7.84,167.84 C 3.52,167.84 0,164.32001 0,160 L 0,0 Z"/></g><g id="g4742" transform="scale(0.048828,0.048828)"><text style="font-variant:normal;font-weight:400;font-size:327.67999268px;font-family:sans-serif;-inkscape-font-specification:sans-serif;writing-mode:lr-tb;fill:#000;fill-opacity:1;fill-rule:nonzero;stroke:none" id="text4744" transform="translate(2205.28,8847.3604)"><tspan id="tspan4746" x="0 180.224 344.064 609.485 786.432 897.843 1061.683 1133.773 1300.889 1477.837 1595.802 1707.213 1867.776" y="0">Remote Portal</tspan></text></g><g id="g4748" transform="translate(32.32,420.32001)"><path style="fill:gray;fill-opacity:1;fill-rule:evenodd;stroke:none" id="path4750" d="m 0,0 c 0,-4.32 3.52,-7.84 7.84,-7.84 l 230.55999,0 C 242.72,-7.84 246.24,-4.32 246.24,0 l 0,160 c 0,4.32001 -3.52,7.84 -7.84001,7.84 L 7.84,167.84 C 3.52,167.84 0,164.32001 0,160 L 0,0 Z"/></g><g id="g4758" transform="translate(525.28003,420.32001)"><path style="fill:gray;fill-opacity:1;fill-rule:evenodd;stroke:none" id="path4760" d="m 0,0 c 0,-4.32 3.52,-7.84 7.84,-7.84 l 230.72,0 c 4.32,0 7.83999,3.52 7.83999,7.84 l 0,160 c 0,4.32001 -3.51999,7.84 -7.83999,7.84 l -230.72,0 C 3.52,167.84 0,164.32001 0,160 L 0,0 Z"/></g><g id="g4762" transform="scale(0.048828,0.048828)"><text style="font-variant:normal;font-weight:400;font-size:327.67999268px;font-family:sans-serif;-inkscape-font-specification:sans-serif;writing-mode:lr-tb;fill:#000;fill-opacity:1;fill-rule:nonzero;stroke:none" id="text4764" transform="translate(12297.8,8847.3604)"><tspan id="tspan4766" x="0 137.626 314.573 448.922 609.485 691.405 766.771 976.486 1133.773 1245.184 1405.747 1648.23 1802.24" y="0">Local Gateway</tspan></text></g><g id="g4768" transform="translate(525.59643,421.42741)"><path style="fill:gray;fill-opacity:1;fill-rule:evenodd;stroke:none" id="path4770" d="m 0,0 c 0,-4.32 3.52,-7.84 7.84,-7.84 l 230.72,0 c 4.32,0 7.83999,3.52 7.83999,7.84 l 0,160 c 0,4.32001 -3.51999,7.84 -7.83999,7.84 l -230.72,0 C 3.52,167.84 0,164.32001 0,160 L 0,0 Z"/></g><g id="g4784" transform="translate(23.360001,360.95999)"><path style="fill:#d9d9d9;fill-opacity:1;fill-rule:evenodd;stroke:none" id="path4786" d="M 0,0 C 0,-15.2 14.4,-27.360001 32,-27.360001 49.599998,-27.360001 63.84,-15.2 63.84,0 63.84,15.04 49.599998,27.360001 32,27.360001 14.4,27.360001 0,15.04 0,0 Z"/></g><g id="g4788" transform="translate(118.08,354.07999)"><path style="fill:#d9d9d9;fill-opacity:1;fill-rule:evenodd;stroke:none" id="path4790" d="M 0,0 C 0,-18.08 17.280001,-32.799999 38.400002,-32.799999 59.52,-32.799999 76.800003,-18.08 76.800003,0 76.800003,18.24 59.52,32.959999 38.400002,32.959999 17.280001,32.959999 0,18.24 0,0 Z"/></g><g id="g4792"><path style="fill:#d9d9d9;fill-opacity:1;fill-rule:nonzero;stroke:none" id="path4794" d="m 60.639999,349.60001 94.720001,0 0,38.72 -94.720001,0 0,-38.72 z"/></g><g id="g4796" transform="translate(62.400002,332.32001)"><path style="fill:#d9d9d9;fill-opacity:1;fill-rule:evenodd;stroke:none" id="path4798" d="m 0,0 c 0,-19.68 18.559999,-35.68 41.599998,-35.68 22.880005,0 41.599999,16 41.599999,35.68 0,19.84 -18.719994,35.68 -41.599999,35.68 C 18.559999,35.68 0,19.84 0,0 Z"/></g><g id="g4822" transform="translate(240.48,253.75999)"><path style="fill:#000;fill-opacity:1;fill-rule:nonzero;stroke:none" id="path4824" d="m 0,0 -2.4,0 0,2.4 L 0,2.4 0,0 Z m -4.8,0 -2.4,0 0,2.4 2.4,0 0,-2.4 z m -4.8,0 -2.4,0 0,2.4 2.4,0 0,-2.4 z m -4.8,0 -2.399999,0 0,2.4 2.399999,0 0,-2.4 z M -19.200001,0 -21.6,0 l 0,2.4 2.399999,0 0,-2.4 z M -24,0 l -2.4,0 0,2.4 2.4,0 0,-2.4 z m -4.799999,0 -2.400002,0 0,2.4 2.400002,0 0,-2.4 z M -33.599998,0 -36,0 l 0,2.4 2.400002,0 0,-2.4 z M -29.92,-4 -39.040001,1.12 -29.92,6.4 c 0.479999,0.32 1.280001,0.16 1.6,-0.48 0.32,-0.48 0.16,-1.28 -0.479999,-1.6 l 0,0 L -36,0.16 l 0,2.08 7.200001,-4.32 C -28.16,-2.4 -28,-3.04 -28.32,-3.68 c -0.319999,-0.48 -1.120001,-0.8 -1.6,-0.32 z"/></g><g id="g4850" transform="translate(484.32001,239.67999)"><path style="fill:#f79646;fill-opacity:1;fill-rule:evenodd;stroke:none" id="path4852" d="m 0,0 c 0,-0.8 0.64,-1.6 1.6,-1.6 l 31.519999,0 c 0.799999,0 1.600002,0.8 1.600002,1.6 l 0,369.12 c 0,0.95999 -0.800003,1.6 -1.600002,1.6 L 1.6,370.72 c -0.96,0 -1.6,-0.64001 -1.6,-1.6 L 0,0 Z"/></g><g id="g4860"><path style="fill:#000;fill-opacity:1;fill-rule:nonzero;stroke:none" id="path4862" d="m 660.96002,357.44 0,2.4 -2.40002,0 0,-2.4 2.40002,0 z m -3.04004,4 -2.39996,0 0,-2.39999 2.39996,0 0,2.39999 z m -4.79998,0 -2.40003,0 0,-2.39999 2.40003,0 0,2.39999 z m -4.79999,0 -2.40003,0 0,-2.39999 2.40003,0 0,2.39999 z m -4.79999,0 -2.40002,0 0,-2.39999 2.40002,0 0,2.39999 z m -4.80005,0 -2.39996,0 0,-2.39999 2.39996,0 0,2.39999 z m -4.79999,0 -2.39996,0 0,-2.39999 2.39996,0 0,2.39999 z m -4.79998,0 -2.40003,0 0,-2.39999 2.40003,0 0,2.39999 z m -4.96003,0 -2.39996,0 0,-2.39999 2.39996,0 0,2.39999 z m -4.79999,0 -2.39996,0 0,-2.39999 2.39996,0 0,2.39999 z m -4.79998,0 -2.40003,0 0,-2.39999 2.40003,0 0,2.39999 z m -4.79999,0 -2.40003,0 0,-2.39999 2.40003,0 0,2.39999 z m -4.79999,0 -2.40002,0 0,-2.39999 2.40002,0 0,2.39999 z m -4.80005,0 -2.39996,0 0,-2.39999 2.39996,0 0,2.39999 z m -4.79999,0 -2.39996,0 0,-2.39999 2.39996,0 0,2.39999 z m -4.79998,0 -2.40003,0 0,-2.39999 2.40003,0 0,2.39999 z m -4.79999,0 -2.40003,0 0,-2.39999 2.40003,0 0,2.39999 z m -4.79999,0 -2.40002,0 0,-2.39999 2.40002,0 0,2.39999 z m -4.80005,0 -2.39996,0 0,-2.39999 2.39996,0 0,2.39999 z m -4.79999,0 -2.39996,0 0,-2.39999 2.39996,0 0,2.39999 z m -4.79998,0 -2.40003,0 0,-2.39999 2.40003,0 0,2.39999 z m -4.79999,0 -2.40003,0 0,-2.39999 2.40003,0 0,2.39999 z m -4.79999,0 -2.40002,0 0,-2.39999 2.40002,0 0,2.39999 z m -4.80005,0 -2.39996,0 0,-2.39999 2.39996,0 0,2.39999 z m -4.79999,0 -2.39996,0 0,-2.39999 2.39996,0 0,2.39999 z m -4.79998,0 -2.40003,0 0,-2.39999 2.40003,0 0,2.39999 z m -4.79999,0 -2.40003,0 0,-2.39999 2.40003,0 0,2.39999 z m -4.79999,0 -2.40002,0 0,-2.39999 2.40002,0 0,2.39999 z m -4.80005,0 -2.39996,0 0,-2.39999 2.39996,0 0,2.39999 z m -4.95996,0 -2.40002,0 0,-2.39999 2.40002,0 0,2.39999 z m -4.79999,0 -2.40002,0 0,-2.39999 2.40002,0 0,2.39999 z m -4.80004,0 -2.39997,0 0,-2.39999 2.39997,0 0,2.39999 z m -4.79999,0 -2.4,0 0,-2.39999 2.4,0 0,2.39999 z m -4.79999,0 -2.39999,0 0,-2.39999 2.39999,0 0,2.39999 z m -4.79999,0 -2.40002,0 0,-2.39999 2.40002,0 0,2.39999 z m -4.80002,0 -2.39999,0 0,-2.39999 2.39999,0 0,2.39999 z m -4.79998,0 -2.4,0 0,-2.39999 2.4,0 0,2.39999 z m -4.80002,0 -2.4,0 0,-2.39999 2.4,0 0,2.39999 z m -4.79999,0 -2.39999,0 0,-2.39999 2.39999,0 0,2.39999 z m -4.79999,0 -2.40002,0 0,-2.39999 2.40002,0 0,2.39999 z m -4.80002,0 -2.39999,0 0,-2.39999 2.39999,0 0,2.39999 z m -4.79998,0 -2.4,0 0,-2.39999 2.4,0 0,2.39999 z m -4.80002,0 -2.4,0 0,-2.39999 2.4,0 0,2.39999 z m -4.79999,0 -2.39999,0 0,-2.39999 2.39999,0 0,2.39999 z m -4.79999,0 -2.40002,0 0,-2.39999 2.40002,0 0,2.39999 z m -4.80002,0 -2.39999,0 0,-2.39999 2.39999,0 0,2.39999 z m -4.79998,0 -2.4,0 0,-2.39999 2.4,0 0,2.39999 z m -4.80002,0 -2.4,0 0,-2.39999 2.4,0 0,2.39999 z m -4.79999,0 -2.39999,0 0,-2.39999 2.39999,0 0,2.39999 z m -4.79999,0 -2.40002,0 0,-2.39999 2.40002,0 0,2.39999 z m -4.96002,0 -2.39999,0 0,-2.39999 2.39999,0 0,2.39999 z m -4.79999,0 -2.39999,0 0,-2.39999 2.39999,0 0,2.39999 z m -4.79999,0 -2.40002,0 0,-2.39999 2.40002,0 0,2.39999 z m -4.80001,0 -2.4,0 0,-2.39999 2.4,0 0,2.39999 z m -4.79999,0 -2.4,0 0,-2.39999 2.4,0 0,2.39999 z m -4.80002,0 -2.39999,0 0,-2.39999 2.39999,0 0,2.39999 z m -4.79999,0 -2.39999,0 0,-2.39999 2.39999,0 0,2.39999 z m -4.79999,0 -2.40002,0 0,-2.39999 2.40002,0 0,2.39999 z m -4.80001,0 -2.4,0 0,-2.39999 2.4,0 0,2.39999 z m -4.79999,0 -2.4,0 0,-2.39999 2.4,0 0,2.39999 z m 3.67999,4.16001 -8.95999,-5.28 8.95999,-5.28 c 0.63999,-0.32001 1.28,-0.16001 1.60001,0.47998 0.32,0.48001 0.16,1.28 -0.32001,1.60001 l 0,0 -7.20001,4.16 0,-2.07999 7.20001,4.31998 c 0.48001,0.32001 0.64001,0.96002 0.32001,1.60001 -0.32001,0.64001 -0.96002,0.80001 -1.60001,0.48001 z"/></g><g id="g4864" transform="translate(230.08,409.44)"><path style="fill:#d9d9d9;fill-opacity:1;fill-rule:evenodd;stroke:none" id="path4866" d="M 0,0 C 0,-12 14.08,-21.76 31.200001,-21.76 48.32,-21.76 62.240002,-12 62.240002,0 62.240002,12.16 48.32,21.92 31.200001,21.92 14.08,21.92 0,12.16 0,0 Z"/></g><g id="g4868" transform="translate(313.28,404.95999)"><path style="fill:#d9d9d9;fill-opacity:1;fill-rule:evenodd;stroke:none" id="path4870" d="m 0,0 c 0,-14.4 16.799999,-26.24 37.439999,-26.24 20.640003,0 37.439998,11.84 37.439998,26.24 0,14.56 -16.799995,26.4 -37.439998,26.4 C 16.799999,26.4 0,14.56 0,0 Z"/></g><g id="g4872" transform="translate(-1.8984019,4.374192e-8)"><path style="fill:#d9d9d9;fill-opacity:1;fill-rule:nonzero;stroke:none" id="path4874" d="m 262.39999,400.48001 92.32001,0 0,30.87998 -92.32001,0 0,-30.87998 z"/></g><g id="g4876" transform="translate(269.44,383.84)"><path style="fill:#d9d9d9;fill-opacity:1;fill-rule:evenodd;stroke:none" id="path4878" d="M 0,0 C 0,-15.84 21.440001,-28.639999 48,-28.639999 74.400002,-28.639999 95.839996,-15.84 95.839996,0 95.839996,15.68 74.400002,28.48 48,28.48 21.440001,28.48 0,15.68 0,0 Z"/></g><g id="g4892" transform="matrix(0.87518339,0,0,1,72.992753,0)"><path style="fill:#4f81bd;fill-opacity:1;fill-rule:evenodd;stroke:none" id="path4894" d="m 584.79999,514.40002 -378.55999,0 0,12.79999 -25.76,-25.6 25.76,-25.76001 0,12.80001 378.55999,0 0,25.76001 z"/></g><g id="g4896" transform="matrix(0.87733101,0,0,1,585.59998,515.20001)"><path style="fill:#385d8a;fill-opacity:1;fill-rule:nonzero;stroke:none" id="path4898" d="m 0,0 -379.35999,0 0.79999,-0.8 0,14.72 -27.67999,-27.52 27.67999,-27.679999 0,14.72 -0.79999,-0.800002 379.35999,0 L 0,0 Z m -1.6,-26.559999 0.8,0.799999 -379.36,0 0,-13.600001 1.28,0.64 -25.60001,25.600001 0,-1.12 25.60001,25.6 -1.28,0.64 0,-13.6 379.36,0 -0.8,0.8 0,-25.759999 z"/></g><text style="font-style:normal;font-variant:normal;font-weight:400;font-stretch:normal;font-size:16px;line-height:125%;font-family:sans-serif;-inkscape-font-specification:sans-serif;text-align:center;letter-spacing:0;word-spacing:0;writing-mode:lr-tb;text-anchor:middle;fill:#000;fill-opacity:1;stroke:none;stroke-width:1px;stroke-linecap:butt;stroke-linejoin:miter;stroke-opacity:1" id="text4354" x="340.767" y="-153.449" transform="matrix(0.00898979,0.99995959,-0.99995959,0.00898979,0,0)" xml:space="preserve"><tspan id="tspan4356" x="340.767" y="-153.449" style="font-style:normal;font-variant:normal;font-weight:400;font-stretch:normal;font-size:13.33333302px;font-family:sans-serif;-inkscape-font-specification:sans-serif;text-align:center;text-anchor:middle">2. Response</tspan></text><text style="font-style:normal;font-variant:normal;font-weight:400;font-stretch:normal;font-size:16px;line-height:125%;font-family:sans-serif;-inkscape-font-specification:sans-serif;text-align:center;letter-spacing:0;word-spacing:0;writing-mode:lr-tb;text-anchor:middle;fill:#000;fill-opacity:1;stroke:none;stroke-width:1px;stroke-linecap:butt;stroke-linejoin:miter;stroke-opacity:1" id="text4358" x="-331.011" y="56.977" transform="matrix(0.01122033,-0.99993705,0.99993705,0.01122033,0,0)" xml:space="preserve"><tspan id="tspan4360" x="-331.011" y="56.977" style="font-style:normal;font-variant:normal;font-weight:400;font-stretch:normal;font-size:13.33333302px;font-family:sans-serif;-inkscape-font-specification:sans-serif;text-align:center;text-anchor:middle">1. Request</tspan></text><flowRoot id="flowRoot4366" xml:space="preserve" style="font-style:normal;font-variant:normal;font-weight:400;font-stretch:normal;font-size:15px;line-height:125%;font-family:sans-serif;-inkscape-font-specification:sans-serif;text-align:center;letter-spacing:0;word-spacing:0;writing-mode:lr-tb;text-anchor:middle;fill:#000;fill-opacity:1;stroke:none;stroke-width:1px;stroke-linecap:butt;stroke-linejoin:miter;stroke-opacity:1"><flowRegion id="flowRegion4368"><rect id="rect4370" width="76.233" height="38.561" x="-21.654" y="90.281" style="font-style:normal;font-variant:normal;font-weight:400;font-stretch:normal;font-family:sans-serif;-inkscape-font-specification:sans-serif;text-align:center;text-anchor:middle"/></flowRegion><flowPara id="flowPara4372"/></flowRoot><text style="font-style:normal;font-variant:normal;font-weight:400;font-stretch:normal;font-size:16px;line-height:125%;font-family:sans-serif;-inkscape-font-specification:sans-serif;text-align:center;letter-spacing:0;word-spacing:0;writing-mode:lr-tb;text-anchor:middle;fill:#000;fill-opacity:1;stroke:none;stroke-width:1px;stroke-linecap:butt;stroke-linejoin:miter;stroke-opacity:1" id="text4374" x="319.221" y="391.762" xml:space="preserve"><tspan id="tspan4376" x="319.221" y="391.762" style="font-style:normal;font-variant:normal;font-weight:400;font-stretch:normal;font-family:sans-serif;-inkscape-font-specification:sans-serif;text-align:center;text-anchor:middle;fill:#fff;fill-opacity:1">Thing</tspan><tspan id="tspan4378" x="319.221" y="411.762" style="font-style:normal;font-variant:normal;font-weight:400;font-stretch:normal;font-family:sans-serif;-inkscape-font-specification:sans-serif;text-align:center;text-anchor:middle;fill:#fff;fill-opacity:1">Directory</tspan></text><text style="font-style:normal;font-variant:normal;font-weight:400;font-stretch:normal;font-size:16px;line-height:125%;font-family:sans-serif;-inkscape-font-specification:sans-serif;text-align:center;letter-spacing:0;word-spacing:0;writing-mode:lr-tb;text-anchor:middle;fill:#000;fill-opacity:1;stroke:none;stroke-width:1px;stroke-linecap:butt;stroke-linejoin:miter;stroke-opacity:1" id="text4380" x="107.932" y="233.715" xml:space="preserve"><tspan id="tspan4384" x="107.932" y="233.715">WoT Client</tspan><tspan id="tspan4392" x="107.932" y="253.715">(Browser)</tspan></text><text style="font-style:normal;font-variant:normal;font-weight:400;font-stretch:normal;font-size:16px;line-height:125%;font-family:sans-serif;-inkscape-font-specification:sans-serif;text-align:start;letter-spacing:0;word-spacing:0;writing-mode:lr-tb;text-anchor:start;fill:#000;fill-opacity:1;stroke:none;stroke-width:1px;stroke-linecap:butt;stroke-linejoin:miter;stroke-opacity:1" id="text4394" x="108.789" y="435.047" xml:space="preserve"><tspan id="tspan4396" x="108.789" y="435.047">Cloud Portal</tspan></text><text style="font-style:normal;font-variant:normal;font-weight:400;font-stretch:normal;font-size:16px;line-height:125%;font-family:sans-serif;-inkscape-font-specification:sans-serif;text-align:start;letter-spacing:0;word-spacing:0;writing-mode:lr-tb;text-anchor:start;fill:#000;fill-opacity:1;stroke:none;stroke-width:1px;stroke-linecap:butt;stroke-linejoin:miter;stroke-opacity:1" id="text4398" x="598.83" y="438.608" xml:space="preserve"><tspan id="tspan4400" x="598.83" y="438.608">Local Gateway</tspan></text><text id="text4402" x="318.382" y="253.649" xml:space="preserve" style="font-style:normal;font-variant:normal;font-weight:400;font-stretch:normal;font-size:16px;line-height:125%;font-family:sans-serif;-inkscape-font-specification:sans-serif;text-align:center;letter-spacing:0;word-spacing:0;writing-mode:lr-tb;text-anchor:middle;fill:#000;fill-opacity:1;stroke:none;stroke-width:1px;stroke-linecap:butt;stroke-linejoin:miter;stroke-opacity:1"><tspan style="font-style:normal;font-variant:normal;font-weight:400;font-stretch:normal;font-family:sans-serif;-inkscape-font-specification:sans-serif;text-align:center;text-anchor:middle;fill:#fff;fill-opacity:1" id="tspan4404" x="318.382" y="253.649">Thing</tspan><tspan style="font-style:normal;font-variant:normal;font-weight:400;font-stretch:normal;font-family:sans-serif;-inkscape-font-specification:sans-serif;text-align:center;text-anchor:middle;fill:#fff;fill-opacity:1" id="tspan4406" x="318.382" y="273.649">Description</tspan></text><flowRoot id="flowRoot4408" xml:space="preserve" style="font-style:normal;font-variant:normal;font-weight:400;font-stretch:normal;font-size:15px;line-height:125%;font-family:sans-serif;-inkscape-font-specification:sans-serif;text-align:start;letter-spacing:0;word-spacing:0;writing-mode:lr-tb;text-anchor:start;fill:#000;fill-opacity:1;stroke:none;stroke-width:1px;stroke-linecap:butt;stroke-linejoin:miter;stroke-opacity:1"><flowRegion id="flowRegion4410"><rect id="rect4412" width="18.687" height="18.094" x="276.158" y="24.726" style="font-style:normal;font-variant:normal;font-weight:400;font-stretch:normal;font-family:sans-serif;-inkscape-font-specification:sans-serif"/></flowRegion><flowPara id="flowPara4414"/></flowRoot><text style="font-style:normal;font-variant:normal;font-weight:400;font-stretch:normal;font-size:16px;line-height:125%;font-family:sans-serif;-inkscape-font-specification:sans-serif;text-align:center;letter-spacing:0;word-spacing:0;writing-mode:lr-tb;text-anchor:middle;fill:#000;fill-opacity:1;stroke:none;stroke-width:1px;stroke-linecap:butt;stroke-linejoin:miter;stroke-opacity:1" id="text4416" x="725.851" y="353.915" xml:space="preserve"><tspan id="tspan4418" x="725.851" y="353.915" style="font-style:normal;font-variant:normal;font-weight:400;font-stretch:normal;font-family:sans-serif;-inkscape-font-specification:sans-serif;text-align:center;text-anchor:middle;fill:#fff;fill-opacity:1">Thing</tspan><tspan id="tspan4420" x="725.851" y="373.915" style="font-style:normal;font-variant:normal;font-weight:400;font-stretch:normal;font-family:sans-serif;-inkscape-font-specification:sans-serif;text-align:center;text-anchor:middle;fill:#fff;fill-opacity:1">Description</tspan></text><text id="text4440" x="105.888" y="349.096" xml:space="preserve" style="font-style:normal;font-variant:normal;font-weight:400;font-stretch:normal;font-size:16px;line-height:125%;font-family:sans-serif;-inkscape-font-specification:sans-serif;text-align:center;letter-spacing:0;word-spacing:0;writing-mode:lr-tb;text-anchor:middle;fill:#000;fill-opacity:1;stroke:none;stroke-width:1px;stroke-linecap:butt;stroke-linejoin:miter;stroke-opacity:1"><tspan style="font-style:normal;font-variant:normal;font-weight:400;font-stretch:normal;font-family:sans-serif;-inkscape-font-specification:sans-serif;text-align:center;text-anchor:middle;fill:#fff;fill-opacity:1" id="tspan4444" x="105.888" y="349.096">Internet</tspan></text><text style="font-style:normal;font-variant:normal;font-weight:400;font-stretch:normal;font-size:16px;line-height:125%;font-family:sans-serif;-inkscape-font-specification:sans-serif;text-align:center;letter-spacing:0;word-spacing:0;writing-mode:lr-tb;text-anchor:middle;fill:#000;fill-opacity:1;stroke:none;stroke-width:1px;stroke-linecap:butt;stroke-linejoin:miter;stroke-opacity:1" id="text4448" x="378.955" y="479.229" xml:space="preserve"><tspan id="tspan4450" x="378.955" y="479.229" style="font-style:normal;font-variant:normal;font-weight:400;font-stretch:normal;font-family:sans-serif;-inkscape-font-specification:sans-serif;text-align:center;text-anchor:middle;fill:#fff;fill-opacity:1">Internet</tspan></text><text id="text4452" x="415.221" y="528.296" xml:space="preserve" style="font-style:normal;font-variant:normal;font-weight:400;font-stretch:normal;font-size:16px;line-height:125%;font-family:sans-serif;-inkscape-font-specification:sans-serif;text-align:center;letter-spacing:0;word-spacing:0;writing-mode:lr-tb;text-anchor:middle;fill:#000;fill-opacity:1;stroke:none;stroke-width:1px;stroke-linecap:butt;stroke-linejoin:miter;stroke-opacity:1"><tspan id="tspan4456" x="415.221" y="528.296" style="font-style:normal;font-variant:normal;font-weight:400;font-stretch:normal;font-size:13.33333302px;font-family:sans-serif;-inkscape-font-specification:sans-serif">tunnel</tspan></text><text style="font-style:normal;font-variant:normal;font-weight:400;font-stretch:normal;font-size:16px;line-height:125%;font-family:sans-serif;-inkscape-font-specification:sans-serif;text-align:start;letter-spacing:0;word-spacing:0;writing-mode:lr-tb;text-anchor:start;fill:#000;fill-opacity:1;stroke:none;stroke-width:1px;stroke-linecap:butt;stroke-linejoin:miter;stroke-opacity:1" id="text4899" x="-480.115" y="508.559" transform="matrix(0.00183864,-0.99999831,0.99999831,0.00183864,0,0)" xml:space="preserve"><tspan id="tspan4901" x="-480.115" y="508.559">NAT &amp; Firewall</tspan></text><text style="font-style:normal;font-variant:normal;font-weight:400;font-stretch:normal;font-size:16px;line-height:125%;font-family:F1;-inkscape-font-specification:'F1, Normal';text-align:start;letter-spacing:0;word-spacing:0;writing-mode:lr-tb;text-anchor:start;fill:#000;fill-opacity:1;stroke:none;stroke-width:1px;stroke-linecap:butt;stroke-linejoin:miter;stroke-opacity:1" id="text4903" x="717.28" y="268.682" xml:space="preserve"><tspan id="tspan4905" x="717.28" y="268.682" style="-inkscape-font-specification:sans-serif;font-family:sans-serif;font-weight:400;font-style:normal;font-stretch:normal;font-variant:normal">Local Network</tspan></text><text id="text4907" x="923.91" y="344.408" xml:space="preserve" style="font-style:normal;font-variant:normal;font-weight:400;font-stretch:normal;font-size:16px;line-height:125%;font-family:sans-serif;-inkscape-font-specification:sans-serif;text-align:center;letter-spacing:0;word-spacing:0;writing-mode:lr-tb;text-anchor:middle;fill:#000;fill-opacity:1;stroke:none;stroke-width:1px;stroke-linecap:butt;stroke-linejoin:miter;stroke-opacity:1"><tspan id="tspan4909" x="923.91" y="344.408">WoT Thing</tspan><tspan id="tspan4911" x="923.91" y="364.408">(eg Garage door</tspan><tspan id="tspan4913" x="923.91" y="384.408">controller)</tspan></text><text id="text4915" x="920.821" y="442.962" xml:space="preserve" style="font-style:normal;font-variant:normal;font-weight:400;font-stretch:normal;font-size:16px;line-height:125%;font-family:sans-serif;-inkscape-font-specification:sans-serif;text-align:center;letter-spacing:0;word-spacing:0;writing-mode:lr-tb;text-anchor:middle;fill:#000;fill-opacity:1;stroke:none;stroke-width:1px;stroke-linecap:butt;stroke-linejoin:miter;stroke-opacity:1"><tspan style="font-style:normal;font-variant:normal;font-weight:400;font-stretch:normal;font-family:sans-serif;-inkscape-font-specification:sans-serif;text-align:center;text-anchor:middle;fill:#fff;fill-opacity:1" id="tspan4917" x="920.821" y="442.962">Firmware</tspan></text><text style="font-style:normal;font-variant:normal;font-weight:400;font-stretch:normal;font-size:16px;line-height:125%;font-family:sans-serif;-inkscape-font-specification:sans-serif;text-align:center;letter-spacing:0;word-spacing:0;writing-mode:lr-tb;text-anchor:middle;fill:#000;fill-opacity:1;stroke:none;stroke-width:1px;stroke-linecap:butt;stroke-linejoin:miter;stroke-opacity:1" id="text4919" x="873.887" y="511.229" xml:space="preserve"><tspan id="tspan4921" x="873.887" y="511.229" style="font-style:normal;font-variant:normal;font-weight:400;font-stretch:normal;font-family:sans-serif;-inkscape-font-specification:sans-serif;text-align:center;text-anchor:middle;fill:#fff;fill-opacity:1">WoT</tspan><tspan style="font-style:normal;font-variant:normal;font-weight:400;font-stretch:normal;font-family:sans-serif;-inkscape-font-specification:sans-serif;text-align:center;text-anchor:middle;fill:#fff;fill-opacity:1" id="tspan4931" x="873.887" y="531.229">Interface</tspan></text><text id="text4933" x="967.063" y="510.011" xml:space="preserve" style="font-style:normal;font-variant:normal;font-weight:400;font-stretch:normal;font-size:16px;line-height:125%;font-family:sans-serif;-inkscape-font-specification:sans-serif;text-align:center;letter-spacing:0;word-spacing:0;writing-mode:lr-tb;text-anchor:middle;fill:#000;fill-opacity:1;stroke:none;stroke-width:1px;stroke-linecap:butt;stroke-linejoin:miter;stroke-opacity:1"><tspan id="tspan4937" x="967.063" y="510.011" style="font-style:normal;font-variant:normal;font-weight:400;font-stretch:normal;font-family:sans-serif;-inkscape-font-specification:sans-serif;text-align:center;text-anchor:middle;fill:#fff;fill-opacity:1">Driver</tspan><tspan style="font-style:normal;font-variant:normal;font-weight:400;font-stretch:normal;font-family:sans-serif;-inkscape-font-specification:sans-serif;text-align:center;text-anchor:middle;fill:#fff;fill-opacity:1" id="tspan4941" x="967.063" y="530.01">API</tspan></text><text style="font-style:normal;font-variant:normal;font-weight:400;font-stretch:normal;font-size:16px;line-height:125%;font-family:sans-serif;-inkscape-font-specification:sans-serif;text-align:center;letter-spacing:0;word-spacing:0;writing-mode:lr-tb;text-anchor:middle;fill:#000;fill-opacity:1;stroke:none;stroke-width:1px;stroke-linecap:butt;stroke-linejoin:miter;stroke-opacity:1" id="text4943" x="967.755" y="553.896" xml:space="preserve"><tspan id="tspan4947" x="967.755" y="553.896" style="font-style:normal;font-variant:normal;font-weight:400;font-stretch:normal;font-size:12px;font-family:sans-serif;-inkscape-font-specification:sans-serif;text-align:center;text-anchor:middle;fill:#000;fill-opacity:1">Local</tspan><tspan style="font-style:normal;font-variant:normal;font-weight:400;font-stretch:normal;font-size:12px;font-family:sans-serif;-inkscape-font-specification:sans-serif;text-align:center;text-anchor:middle;fill:#000;fill-opacity:1" id="tspan4951" x="967.755" y="568.896">Hardware</tspan></text><path style="fill:none;fill-rule:evenodd;stroke:red;stroke-width:1.70078743;stroke-linecap:butt;stroke-linejoin:miter;stroke-miterlimit:4;stroke-dasharray:none;stroke-opacity:1;marker-end:url(#TriangleOutL)" id="path5823" d="M 59.799662,283.23685 58.53406,505.98269 815.68005,508.8303"/><flowRoot id="flowRoot4366-5" transform="translate(160.34509,435.70943)" xml:space="preserve" style="font-style:normal;font-variant:normal;font-weight:400;font-stretch:normal;font-size:15px;line-height:125%;font-family:sans-serif;-inkscape-font-specification:sans-serif;text-align:center;letter-spacing:0;word-spacing:0;writing-mode:lr-tb;text-anchor:middle;fill:#000;fill-opacity:1;stroke:none;stroke-width:1px;stroke-linecap:butt;stroke-linejoin:miter;stroke-opacity:1"><flowRegion id="flowRegion4368-0"><rect id="rect4370-6" width="76.233" height="38.561" x="-21.654" y="90.281" style="font-style:normal;font-variant:normal;font-weight:400;font-stretch:normal;font-family:sans-serif;-inkscape-font-specification:sans-serif;text-align:center;text-anchor:middle"/></flowRegion><flowPara id="flowPara4372-9"/></flowRoot><flowRoot id="flowRoot4408-9" transform="translate(160.34509,435.70943)" xml:space="preserve" style="font-style:normal;font-variant:normal;font-weight:400;font-stretch:normal;font-size:15px;line-height:125%;font-family:sans-serif;-inkscape-font-specification:sans-serif;text-align:start;letter-spacing:0;word-spacing:0;writing-mode:lr-tb;text-anchor:start;fill:#000;fill-opacity:1;stroke:none;stroke-width:1px;stroke-linecap:butt;stroke-linejoin:miter;stroke-opacity:1"><flowRegion id="flowRegion4410-6"><rect id="rect4412-6" width="18.687" height="18.094" x="276.158" y="24.726" style="font-style:normal;font-variant:normal;font-weight:400;font-stretch:normal;font-family:sans-serif;-inkscape-font-specification:sans-serif"/></flowRegion><flowPara id="flowPara4414-4"/></flowRoot><g id="g9772" transform="translate(4.61186,2.6433)"><g id="g4916" transform="matrix(1.0917398,0,0,1,42.240002,446.23999)"><path id="path4918" d="m 0,0 c 0,-2.4 1.92,-4.48 4.48,-4.48 l 53.119998,0 C 60,-4.48 62.080002,-2.4 62.080002,0 l 0,85.279999 c 0,2.400001 -2.080002,4.319999 -4.480004,4.319999 l -53.119998,0 C 1.92,89.599998 0,87.68 0,85.279999 L 0,0 Z" style="fill:#00b050;fill-opacity:1;fill-rule:evenodd;stroke:none"/></g><text id="text4426" x="75.182" y="460.582" xml:space="preserve" style="font-style:normal;font-variant:normal;font-weight:400;font-stretch:normal;font-size:16px;line-height:125%;font-family:sans-serif;-inkscape-font-specification:sans-serif;text-align:center;letter-spacing:0;word-spacing:0;writing-mode:lr-tb;text-anchor:middle;fill:#000;fill-opacity:1;stroke:none;stroke-width:1px;stroke-linecap:butt;stroke-linejoin:miter;stroke-opacity:1"><tspan style="font-style:normal;font-variant:normal;font-weight:400;font-stretch:normal;font-family:sans-serif;-inkscape-font-specification:sans-serif;text-align:center;text-anchor:middle;fill:#fff;fill-opacity:1" id="tspan4430" x="75.182" y="460.582">HTTPS</tspan><tspan id="tspan4434" x="75.182" y="480.582" style="font-style:normal;font-variant:normal;font-weight:400;font-stretch:normal;font-family:sans-serif;-inkscape-font-specification:sans-serif;text-align:center;text-anchor:middle;fill:#fff;fill-opacity:1">to</tspan><tspan id="tspan4436" x="75.182" y="500.582" style="font-style:normal;font-variant:normal;font-weight:400;font-stretch:normal;font-family:sans-serif;-inkscape-font-specification:sans-serif;text-align:center;text-anchor:middle;fill:#fff;fill-opacity:1">HTTP</tspan><tspan id="tspan4438" x="75.182" y="520.582" style="font-style:normal;font-variant:normal;font-weight:400;font-stretch:normal;font-family:sans-serif;-inkscape-font-specification:sans-serif;text-align:center;text-anchor:middle;fill:#fff;fill-opacity:1">Proxy</tspan></text></g><path style="fill:none;fill-rule:evenodd;stroke:red;stroke-width:1.70078743;stroke-linecap:butt;stroke-linejoin:miter;stroke-miterlimit:4;stroke-dasharray:none;stroke-opacity:1;marker-start:url(#marker10251)" id="path10249" d="m 149.65735,292.11505 0.0927,109.57198 -48.40653,0.27008 0.14262,42.10737"/><path style="fill:none;fill-rule:evenodd;stroke:red;stroke-width:1.70078743;stroke-linecap:butt;stroke-linejoin:miter;stroke-miterlimit:4;stroke-dasharray:none;stroke-opacity:1;marker-start:url(#marker11395)" id="path11393" d="m 211.76801,495.70827 c 233.10064,0.49389 379.03667,0.37555 612.13845,0.48499"/><g id="g11668" transform="matrix(0.95413013,0,0,1,144.52479,448.88329)"><path id="path11670" d="m 0,0 c 0,-2.4 1.92,-4.48 4.48,-4.48 l 53.119998,0 C 60,-4.48 62.080002,-2.4 62.080002,0 l 0,85.279999 c 0,2.400001 -2.080002,4.319999 -4.480004,4.319999 l -53.119998,0 C 1.92,89.599998 0,87.68 0,85.279999 L 0,0 Z" style="fill:#00b050;fill-opacity:1;fill-rule:evenodd;stroke:none"/></g><text id="text11672" x="172.721" y="462.118" xml:space="preserve" style="font-style:normal;font-variant:normal;font-weight:400;font-stretch:normal;font-size:16px;line-height:125%;font-family:sans-serif;-inkscape-font-specification:sans-serif;text-align:center;letter-spacing:0;word-spacing:0;writing-mode:lr-tb;text-anchor:middle;fill:#000;fill-opacity:1;stroke:none;stroke-width:1px;stroke-linecap:butt;stroke-linejoin:miter;stroke-opacity:1"><tspan id="tspan11680" x="172.721" y="462.118" style="font-style:normal;font-variant:normal;font-weight:400;font-stretch:normal;font-family:sans-serif;-inkscape-font-specification:sans-serif;text-align:center;text-anchor:middle;fill:#fff;fill-opacity:1">Cache</tspan></text><path style="fill:none;fill-rule:evenodd;stroke:red;stroke-width:1.70078743;stroke-linecap:butt;stroke-linejoin:miter;stroke-miterlimit:4;stroke-dasharray:none;stroke-opacity:1;marker-start:url(#marker12233)" id="path12231" d="m 122.82676,493.36044 21.95089,0.0444"/><path id="path13318" d="m 135.22926,506.18705 -20.58634,-0.0704" style="fill:none;fill-rule:evenodd;stroke:red;stroke-width:1.70078743;stroke-linecap:butt;stroke-linejoin:miter;stroke-miterlimit:4;stroke-dasharray:none;stroke-opacity:1;marker-start:url(#marker13320)"/><g id="g13589" transform="translate(0,17.066666)"><ellipse id="ellipse13591" cx="191.264" cy="555.164" rx="25.787" ry="8.464" style="fill:#0000ad;fill-opacity:1;stroke:gray;stroke-width:1.70078743;stroke-miterlimit:4;stroke-dasharray:none;stroke-opacity:1"/><rect style="fill:#0000ad;fill-opacity:1;stroke:none;stroke-width:1.70078743;stroke-miterlimit:4;stroke-dasharray:none;stroke-opacity:1" id="rect13593" width="49.833" height="15.978" x="166.347" y="539.126" ry=".079"/></g><g id="g13585"><ellipse style="fill:#0000ad;fill-opacity:1;stroke:gray;stroke-width:1.70078743;stroke-miterlimit:4;stroke-dasharray:none;stroke-opacity:1" id="ellipse13581" cx="191.264" cy="555.164" rx="25.787" ry="8.464"/><rect id="rect13583" width="49.833" height="15.978" x="166.347" y="539.126" ry=".079" style="fill:#0000ad;fill-opacity:1;stroke:none;stroke-width:1.70078743;stroke-miterlimit:4;stroke-dasharray:none;stroke-opacity:1"/></g><ellipse style="fill:#0000ad;fill-opacity:1;stroke:gray;stroke-width:1.70078743;stroke-miterlimit:4;stroke-dasharray:none;stroke-opacity:1" id="path13579" cx="191.264" cy="538.097" rx="25.787" ry="8.464"/></g></svg>